<svg data-name="Group 16320" xmlns="http://www.w3.org/2000/svg" width="627.458" height="358.812" viewBox="0 0 627.458 358.812">
    <defs>
        <clipPath id="4657xngb7a">
            <path data-name="Rectangle 17072" style="fill:none" d="M0 0h627.458v358.812H0z"/>
        </clipPath>
    </defs>
    <g data-name="Group 16319" style="clip-path:url(#4657xngb7a)">
        <path data-name="Path 16366" d="M90.3 149.893c0 2.25-15.274 4.074-34.114 4.074s-34.115-1.824-34.115-4.074 15.274-4.074 34.115-4.074 34.114 1.824 34.114 4.074" transform="translate(11.642 76.921)" style="fill:#333"/>
        <path data-name="Path 16367" d="M122.129 212.838c0 4.627-24.562 8.377-54.864 8.377s-54.865-3.75-54.865-8.377 24.562-8.377 54.862-8.377 54.864 3.75 54.864 8.377" transform="translate(6.543 107.855)" style="fill:#ddd"/>
        <path data-name="Path 16368" d="M67.111 211.615S-7.5 118.6 5.851 7.7A4.539 4.539 0 0 1 13.5 4.989C31.97 22.844 83.027 84.218 74.239 210.6z" transform="translate(2.243 1.96)" style="fill:#efe3dc"/>
        <path data-name="Path 16369" d="M60.087 169.839a.612.612 0 0 1-.591-.46C46.918 120.581 15.024 29.812 14.7 28.9a.611.611 0 0 1 1.153-.406c.321.912 32.232 91.732 44.823 140.581a.611.611 0 0 1-.44.744.655.655 0 0 1-.153.02" transform="translate(7.738 14.816)" style="fill:#333"/>
        <path data-name="Path 16370" d="M77.373 198.322S53.409 104.261 3.754 67.043a2.326 2.326 0 0 0-3.682 2.383C5.247 90.6 25.453 163.311 66.3 198.322a15.388 15.388 0 0 0 11.074 0" transform="translate(0 35.111)" style="fill:#c6d7d0"/>
        <path data-name="Path 16371" d="M60.272 178.848a.609.609 0 0 1-.541-.327C52.56 164.932 9.756 84.627 9.324 83.818a.612.612 0 0 1 1.08-.576c.431.81 43.235 81.117 50.408 94.709a.611.611 0 0 1-.255.825.618.618 0 0 1-.284.072" transform="translate(4.88 43.741)" style="fill:#333"/>
        <path data-name="Path 16372" d="M.339 111.532c4.448 10.793 19.87 44.035 48.653 65.228 0 0 26.944 5.832 24.822 0C62 144.265 15.2 116.849 2.283 109.786a1.385 1.385 0 0 0-1.945 1.746" transform="translate(.121 57.82)" style="fill:#efe3dc"/>
        <path data-name="Path 16373" d="M55.384 168.968a.6.6 0 0 1-.406-.156c-6.82-6.061-41.35-44.249-42.818-45.871a.612.612 0 0 1 .907-.82c.359.4 35.953 39.76 42.723 45.779a.612.612 0 0 1-.406 1.068" transform="translate(6.332 64.314)" style="fill:#333"/>
        <path data-name="Path 16374" d="M45.161 216.066S26.57 93.952 67.956 34.092a2.923 2.923 0 0 1 5.019.573c5.453 16.181 24.139 98.561-8.554 178.413z" transform="translate(21.626 17.366)" style="fill:#cae8d5"/>
        <path data-name="Path 16375" d="M50.578 160.217h-.031a.611.611 0 0 1-.58-.639c.5-10.589 10.593-104.992 10.7-105.945a.611.611 0 1 1 1.214.131c-.1.952-10.187 95.318-10.69 105.87a.611.611 0 0 1-.609.584" transform="translate(26.358 28.003)" style="fill:#333"/>
        <path data-name="Path 16376" d="M48.55 178.8s-12.318-49.634 16.687-82.561a1.874 1.874 0 0 1 3.235.819c2.757 12.26 10.5 54.879-7.32 84.034L49.7 184.147z" transform="translate(24.24 50.431)" style="fill:#efe3dc"/>
        <path data-name="Path 16377" d="M51.614 170.916a.617.617 0 0 1-.092-.008.61.61 0 0 1-.513-.7l9.547-63.774a.611.611 0 0 1 1.208.182l-9.547 63.774a.612.612 0 0 1-.6.521" transform="translate(26.904 55.874)" style="fill:#333"/>
        <path data-name="Path 16378" d="M90.3 148.486c0 2.25-15.274 4.074-34.114 4.074s-34.115-1.824-34.115-4.074c0 0 5.093 66.7 16.294 94.2 0 0 25.459 4.072 46.334 0z" transform="translate(11.642 78.328)" style="fill:#e2b8af"/>
        <path data-name="Path 16379" d="M321.617 226.3c0 9.408-60.641 17.035-135.444 17.035S50.73 235.7 50.73 226.3s60.639-17.035 135.443-17.035 135.444 7.627 135.444 17.035" transform="translate(26.761 110.388)" style="fill:#ddd"/>
        <path data-name="Path 16380" d="M169.56 205.771s1.909 5.728 12.6 10.693 19.476 5.728 21.385 8.019-9.929 5.728-21.767 4.964-27.877-9.929-27.877-9.929 1.146-11.838 1.528-14.129 14.129.382 14.129.382" transform="translate(81.185 107.855)" style="fill:#edaf8c"/>
        <path data-name="Path 16381" d="M199.737 216.992s7.256 6.874-19.094 5.346c0 0-7.638-1.528-12.984-4.583s-13.366-3.437-13.366-3.437-1.909 8.783-.764 10.311 14.511 1.909 29.023 2.673 37.806-1.528 17.184-10.311" transform="translate(80.795 113.055)" style="fill:#333"/>
        <path data-name="Path 16382" d="M156.06 212.771s1.909 5.728 12.6 10.693 19.476 5.728 21.385 8.019-9.929 5.728-21.767 4.964-27.877-9.929-27.877-9.929 1.146-11.838 1.528-14.129 14.129.382 14.129.382" transform="translate(74.064 111.548)" style="fill:#edaf8c"/>
        <path data-name="Path 16383" d="M186.237 223.992s7.256 6.874-19.094 5.346c0 0-7.638-1.528-12.984-4.583s-13.366-3.437-13.366-3.437-1.909 8.783-.764 10.311 14.511 1.909 29.023 2.673 37.806-1.528 17.185-10.311" transform="translate(73.674 116.748)" style="fill:#333"/>
        <path data-name="Path 16384" d="M150.507 107.169s40.734 13.239 51.935 50.408l1.019 95.724s-20.368 18.839-28.514 27.5c0 0-10.693 7.638-51.427 7.638S61.4 276.723 61.4 276.723V136.7s.509-22.913 14.765-29.531 74.339 0 74.339 0" transform="translate(32.391 54.981)" style="fill:#557571"/>
        <path data-name="Path 16385" d="M62.2 121.994s0-32.084 16.6-53.6c15.044-19.5 21.385-41.753 30.042-51.935s22.913-11.711 34.623-7.129 14.766 15.784 11.2 24.949l-9.929 21.132s-3.565 30.55 1.528 58.554l-32.841-.255z" transform="translate(32.813 3.628)" style="fill:#333"/>
        <path data-name="Path 16386" d="M176.042 176.311s-9.165-13.366-16.8-19.094-24.058-18.33-24.822-21-5.346-42.387-9.547-54.989c-3.619-10.858-6.492-23.295-18.712-29.4L98.9 65.186l14.9 95.086 59.955 21.767z" transform="translate(52.172 27.336)" style="fill:#ddd"/>
        <path data-name="Path 16387" d="M118.78 110.549a.611.611 0 0 1-.469-1c.107-.13 2.664-3.177 5.058-4.242a.611.611 0 0 1 .5 1.117c-2.132.949-4.592 3.878-4.616 3.907a.614.614 0 0 1-.469.22" transform="translate(62.335 55.522)" style="fill:#333"/>
        <path data-name="Path 16388" d="M118.781 106.746a.61.61 0 0 1-.356-1.107 9 9 0 0 1 4.937-1.387.612.612 0 0 1 0 1.224 7.941 7.941 0 0 0-4.23 1.159.6.6 0 0 1-.351.112" transform="translate(62.336 54.994)" style="fill:#333"/>
        <path data-name="Path 16389" d="M123.9 118.819s59.191 22.531 69.5 27.5 12.984 9.929 11.456 22.149-6.11 71.411-4.964 82.486c0 0-6.492 3.437-15.657 1.146 0 0-2.291-9.929-5.346-20.24-1.981-6.686-3.819-15.275-3.819-15.275s.764 34.369 6.11 45.825c0 0-6.874 5.346-18.33 3.055l-21.767-57.282L96.4 133.33l16.421-14.511z" transform="translate(50.854 62.678)" style="fill:#eecdb8"/>
        <path data-name="Path 16390" d="M162.8 210.808h-.024a.609.609 0 0 1-.587-.634s.382-9.929 1.146-28.26c.729-17.487-.472-24.746-4.587-27.74s-38.414-21.914-38.759-22.1a.611.611 0 0 1 .59-1.071c1.416.781 34.705 19.144 38.887 22.187 4.564 3.319 5.847 10.581 5.09 28.778a9846.599 9846.599 0 0 0-1.146 28.257.612.612 0 0 1-.609.588" transform="translate(63.127 69.063)" style="fill:#333"/>
        <path data-name="Path 16391" d="M112.322 165.063s8.91-7.129 17.058-8.91 8.4-1.019 8.146-1.783-4.074-3.819-6.11-8.4-2.546-16.8-3.819-23.932-3.564-18.584-3.564-26.731-4.074-34.112-8.656-40.986l-28.259.507-7.382 74.594 13.748 30.8z" transform="translate(42.062 28.654)" style="fill:#f4f4f4"/>
        <path data-name="Path 16392" d="M115.3 126.545a.61.61 0 0 1-.506-.267c-3.816-5.6-9.988-21.842-10.25-22.531a.611.611 0 0 1 1.143-.432c.064.166 6.382 16.8 10.117 22.274a.611.611 0 0 1-.16.849.6.6 0 0 1-.344.107" transform="translate(55.126 54.291)" style="fill:#333"/>
        <path data-name="Path 16393" d="M84.9 63.578s7.9 15.53 19.1 15.275 9.674-10.437 9.674-11.2a73.731 73.731 0 0 1 2.088-9.88 29.452 29.452 0 0 1 1.986-5.4L95.6 35.319 85.922 55.94z" transform="translate(44.787 18.631)" style="fill:#edaf8c"/>
        <path data-name="Path 16394" d="m91.9 35.319 22.149 17.058a31.552 31.552 0 0 0-1.592 5.4S98.015 55.94 91.9 35.319" transform="translate(48.48 18.631)" style="fill:#333"/>
        <path data-name="Path 16395" d="M94.6 37.505s-6.874 12.22.255 17.821c3.973 3.122 11.965 10.182 18.075 10.693s15.784-6.11 19.349-17.058c2.667-8.192 6.619-13.493 6.619-20.366L134.569 15.1l-20.113-1.78-13.239 17.566s-5.346-4.583-8.146-1.274 1.529 7.893 1.529 7.893" transform="translate(48.329 7.026)" style="fill:#edaf8c"/>
        <path data-name="Path 16396" d="M97.367 27.241s-2.291-3.31-3.819-1.783 1.528 4.329 2.291 3.819a6.671 6.671 0 0 0 1.528-2.036" transform="translate(49.125 13.217)" style="fill:#333"/>
        <path data-name="Path 16397" d="M98.079 31.852s16.8 3.31 30.805-8.4c0 0 2.036 7.129 7.127 8.4l.764-4.838-4.583-12.729-26.221-2.8L97.57 24.47z" transform="translate(51.469 6.059)" style="fill:#333"/>
        <path data-name="Path 16398" d="M113.133 41.957a5.473 5.473 0 0 1-1.712-.312.611.611 0 0 1 .386-1.159 2.734 2.734 0 0 0 2.2.041 1.905 1.905 0 0 0 .822-1.364c.258-1.289 2.711-9.148 2.817-9.481a.61.61 0 1 1 1.165.364c-.877 2.808-2.588 8.377-2.783 9.358a3.111 3.111 0 0 1-1.407 2.181 2.921 2.921 0 0 1-1.492.373" transform="translate(58.555 15.431)" style="fill:#333"/>
        <path data-name="Path 16399" d="M113.448 37.169c-.48 2.1-4.274 3.024-8.473 2.065s-7.214-3.44-6.735-5.54 4.272-3.024 8.473-2.064 7.214 3.438 6.735 5.539" transform="translate(51.796 16.485)" style="fill:#dd8e7c"/>
        <path data-name="Path 16400" d="M119.727 36.584c-2.248.432-3.849 1.445-4.185 2.913a3.785 3.785 0 0 0 1.259 3.347 27.872 27.872 0 0 0 2.892-6.154c.011-.037.023-.07.035-.105" transform="translate(60.915 19.298)" style="fill:#dd8e7c"/>
        <path data-name="Path 16401" d="M109.087 29.153s-.255 15.53-6.365 24.313A93.984 93.984 0 0 1 80.955 76c-8.4 6.11-16.8 23.295-16.8 23.295S71.408 73.706 77.9 67.978s17.184-29.4 17.184-29.4z" transform="translate(33.841 15.379)" style="fill:#333"/>
        <path data-name="Path 16402" d="M131.742 148.245s4.2 1.528 11.074 33.223 17.566 74.848 17.566 74.848l-20.621 3.819-37.041-84.776-1.641-39.207z" transform="translate(53.32 71.822)" style="fill:#557571"/>
        <path data-name="Path 16403" d="M115.813 136.153s9.165 5.346 12.475 7.893a16.013 16.013 0 0 1 5.6 14.765s-3.309-4.836-6.364-6.364-15.785-7.129-20.621-12.475z" transform="translate(56.392 71.822)" style="fill:#edaf8c"/>
        <path data-name="Path 16404" d="M99.932 48.153S82.874 63.428 78.291 65.974 59.2 80.486 62.763 114.091s7.382 40.224 15.275 52.189 46.843 21.385 49.644 21.64 10.946-2.546 13.748-4.074c0 0-5.093-6.364-9.165-9.419s-26.731-22.149-27.75-23.931-4.838-1.272-4.838-1.272 2.8-.764 3.31-1.783-1.019-1.528-1.019-1.528a4.852 4.852 0 0 0 0-2.8c-.509-1.019-.764-14-.764-17.058s-.764-42.007-.764-51.935-.509-25.968-.509-25.968" transform="translate(32.814 25.401)" style="fill:#ddd"/>
        <path data-name="Path 16405" d="M90.048 125.193a.611.611 0 0 1-.582-.425c-2.033-6.354-5.482-43.12-5.627-44.681a.611.611 0 1 1 1.216-.113c.035.38 3.582 38.192 5.575 44.422a.615.615 0 0 1-.582.8" transform="translate(44.224 41.895)" style="fill:#333"/>
        <path data-name="Path 16406" d="M80.822 114.528a.611.611 0 0 1-.295-1.147c3.93-2.163 11.658-1.624 11.986-1.6a.612.612 0 0 1-.089 1.22c-.078-.008-7.7-.535-11.31 1.453a.618.618 0 0 1-.293.076" transform="translate(42.312 58.925)" style="fill:#333"/>
        <path data-name="Path 16407" d="M545.809 223.143c0 15.431-87.534 27.941-195.512 27.941s-195.514-12.51-195.514-27.941S242.317 195.2 350.3 195.2s195.512 12.51 195.512 27.941" transform="translate(81.65 102.971)" style="fill:#ddd"/>
        <path data-name="Path 16408" d="M351.7 21.167c-8.326 22.5-32.1 101.995 8.6 189.265h15.31s24.709-110.712-18.034-189.7a3.239 3.239 0 0 0-5.881.431" transform="translate(177.881 10.049)" style="fill:#efe3dc"/>
        <path data-name="Path 16409" d="M361.031 188.016a.61.61 0 0 1-.608-.562l-11.467-143.6a.611.611 0 0 1 .559-.658.6.6 0 0 1 .658.562l11.465 143.594a.61.61 0 0 1-.559.658h-.049" transform="translate(184.077 22.787)" style="fill:#333"/>
        <path data-name="Path 16410" d="M419.488 138.234c0 3.533-20.29 6.4-45.317 6.4s-45.318-2.863-45.318-6.4 20.29-6.4 45.318-6.4 45.317 2.863 45.317 6.4" transform="translate(173.473 69.546)" style="fill:#333"/>
        <path data-name="Path 16411" d="M367.569 172.743s-3.724-54.141 27.167-78.32a3.231 3.231 0 0 1 5.207 2.152c1.524 13.182 2.585 48.8-24.228 78.659z" transform="translate(193.822 49.443)" style="fill:#efe3dc"/>
        <path data-name="Path 16412" d="M374.4 150.109a.585.585 0 0 1-.176-.027.61.61 0 0 1-.409-.761c.5-1.659 12.252-40.69 14.276-45.749a.61.61 0 1 1 1.133.454c-2 5.009-14.117 45.242-14.239 45.648a.612.612 0 0 1-.585.435" transform="translate(197.176 54.433)" style="fill:#333"/>
        <path data-name="Path 16413" d="M379.489 47.032c-11.757 19.451-42.611 80.08-17.7 146.647h13.606S412.023 128.845 386.15 47.8a3.686 3.686 0 0 0-6.661-.77" transform="translate(185.858 23.871)" style="fill:#cae8d5"/>
        <path data-name="Path 16414" d="M362.565 171.758a.5.5 0 0 1-.069 0 .609.609 0 0 1-.539-.674L373.414 68a.623.623 0 0 1 .674-.539.608.608 0 0 1 .539.674L363.17 171.213a.61.61 0 0 1-.6.545" transform="translate(190.934 35.583)" style="fill:#333"/>
        <path data-name="Path 16415" d="M338.85 59.063c10.822 16.91 38.435 66.812 32.012 127.312l-17.621 2.93s-41.162-40.192-20.31-129.434c.587-2.511 4.485-3.049 5.919-.808" transform="translate(172.514 30.411)" style="fill:#c6d7d0"/>
        <path data-name="Path 16416" d="M355.572 164.764a.611.611 0 0 1-.591-.457l-21.74-82.588a.61.61 0 1 1 1.181-.31L356.163 164a.611.611 0 0 1-.435.745.627.627 0 0 1-.156.021" transform="translate(175.777 42.704)" style="fill:#333"/>
        <path data-name="Path 16417" d="M340.007 247.324c0 1.286 15.295 4.013 34.164 4.013s34.163-2.727 34.163-4.013l11.154-111.3c0 3.533-20.288 6.4-45.317 6.4s-45.318-2.864-45.318-6.4z" transform="translate(173.473 71.755)" style="fill:#e2b8af"/>
        <path data-name="Path 16418" d="M278.133 267.207a.612.612 0 0 1-.611-.611V164.78a.611.611 0 0 1 1.222 0V266.6a.612.612 0 0 1-.611.611" transform="translate(146.396 86.601)" style="fill:#333"/>
        <path data-name="Path 16419" d="M324.41 257.132a.612.612 0 0 1-.608-.555l-10.266-109.406a.611.611 0 0 1 .551-.666.6.6 0 0 1 .666.551l10.265 109.408a.61.61 0 0 1-.551.664h-.057" transform="translate(165.392 77.281)" style="fill:#333"/>
        <path data-name="Path 16420" d="M226.305 255.1a.543.543 0 0 1-.1-.009.61.61 0 0 1-.506-.7l15.901-97.375a.6.6 0 0 1 .7-.5.609.609 0 0 1 .5.7l-15.892 97.379a.614.614 0 0 1-.6.513" transform="translate(119.056 82.556)" style="fill:#333"/>
        <path data-name="Path 16421" d="M205.491 208.611s-9.3 25.731-12.018 29.36c-2.23 2.974 1.488 9.293 6.69 9.293s13.134-5.2 15.487-11.893 6.441-26.391 6.441-26.391l-7.433-4.088z" transform="translate(101.711 108.083)" style="fill:#edaf8c"/>
        <path data-name="Path 16422" d="M193.95 226.548s-4.337 7.806-.371 11.275 14.371.991 19.823-8.921c0 0-14.123 7.682-19.451-2.354" transform="translate(101.233 119.506)" style="fill:#333"/>
        <path data-name="Path 16423" d="m231.568 206.365 82.08 14.035 55.8-32.874 17.311-117.633h-84.386l-3.952 91.124-66.853 37.838z" transform="translate(122.155 36.869)" style="fill:#ddd"/>
        <path data-name="Path 16424" d="M370.845 127.961s10.722 39.223-27.876 46.459c-17.841 3.345-39.77 5.947-72.972 1.984l-33.2 76.814a24.128 24.128 0 0 1-9.539-1.549 29.84 29.84 0 0 1-4.337-1.92l-8.424 14.867c-10.407 1.486-13.381-2.479-13.381-2.479l6.443-27.752s11.893-55.007 15.857-67.4 15.859-15.859 15.859-15.859 2.962-21.154 7.428-33.541c5.953-16.511 63.129-14.033 63.129-14.033z" transform="translate(106.089 54.557)" style="fill:#f4f4f4"/>
        <path data-name="Path 16425" d="M286.468 38.913s-8.992 13.308 0 25.537l20.5 13.308 10.071 3.237s2.158-12.588-3.6-18.7-11.869-12.229-8.271-20.861 4.315-29.133-12.949-26.255z" transform="translate(149.007 7.861)" style="fill:#333"/>
        <path data-name="Path 16426" d="M277.516 52.545s12.327.781 17.647-14.359-2.687-31.934-11.61-36.086-6.037 50.44-6.037 50.44" transform="translate(146.157 .992)" style="fill:#333"/>
        <path data-name="Path 16427" d="M318.8 129.673a103.158 103.158 0 0 1-17.47-29.734c-20.443 21.187-46.832 23.788-62.07 26.389s-61 4.52-61 4.52c-3.949-3.5-3.322-11.081-2.821-14.4.151-1 .292-1.616.292-1.616s63.161-18.607 72.453-20.837 20.07-10.778 32.336-20.814 30.477-19.7 30.477-19.7c12.738-7.366 33.451-8.966 33.451-8.966l34.233 89.249s7.023 14.867 8.51 25.273c0 0-28.806 4.59-47.762-2.1S324 145.656 322.887 143.8z" transform="translate(92.349 23.481)" style="fill:#557571"/>
        <path data-name="Path 16428" d="M178.258 106.565c-3.949-3.5-3.324-11.081-2.821-14.4.151-1 .292-1.616.292-1.616a3.458 3.458 0 0 1 3.246 2.421c.444 1.4.858 3.183 1.845 7.256.3 1.233 1.01 4.4.223 5.172a6.7 6.7 0 0 1-2.785 1.17" transform="translate(92.348 47.764)" style="fill:#333"/>
        <path data-name="Path 16429" d="M298.368 45.355s-1.983 12.017-12.268 17.592c0 0-14.571 10.418-21.038 7.3-6.874-3.31-4.456-11.711-2.253-14.117 0 0 12.885-8.919 35.557-10.778" transform="translate(137.434 23.925)" style="fill:#333"/>
        <path data-name="Path 16430" d="M260.808 41.377s.979 3.765 1.857 9.188c1.046 6.464 1.946 15.287.868 22.9 0 0-.742 3.469 6.814 3.345s21.932-8.006 26.7-21.781a43.394 43.394 0 0 1-10.1-20.22l-19.7 3.593z" transform="translate(137.579 18.363)" style="fill:#edaf8c"/>
        <path data-name="Path 16431" d="m284.648 36.736-17.4.652-6.443 2.973s.981 3.765 1.857 9.19c0 0 14.8.567 21.984-12.814" transform="translate(137.578 19.379)" style="fill:#333"/>
        <path data-name="Path 16432" d="M257.148 22.827a61.6 61.6 0 0 0-1.182 24c1.346 8 5.349 12.113 8.386 12.891 3.141.8 22.5 5.542 31.337-21.746 0 0 6.6.2 6.914-5.695s-6.684-3.764-6.684-3.764l-.881-10.436L277.56 6.612 266.466 11.1z" transform="translate(134.657 3.488)" style="fill:#edaf8c"/>
        <path data-name="Path 16433" d="M282.111 23.872s2.768-1.016 3.866-.249-3.215 2.2-3.752 2.024-.115-1.775-.115-1.775" transform="translate(148.733 12.31)" style="fill:#333"/>
        <path data-name="Path 16434" d="M264.665 34.744h-.061a3.363 3.363 0 0 1-2.571-1.22 2.961 2.961 0 0 1-.252-2.543c.342-1.3 3.463-9.394 3.6-9.738a.611.611 0 0 1 1.14.44c-1.117 2.892-3.293 8.621-3.553 9.61a1.851 1.851 0 0 0 .075 1.535 2.26 2.26 0 0 0 1.688.7.611.611 0 0 1-.061 1.219" transform="translate(138.007 10.997)" style="fill:#333"/>
        <path data-name="Path 16435" d="M281.983 30.5c-.257 1.766-3.341 2.78-6.889 2.264s-6.217-2.365-5.96-4.13 3.341-2.78 6.889-2.264 6.217 2.365 5.96 4.13" transform="translate(141.962 13.84)" style="fill:#dd8e7c"/>
        <path data-name="Path 16436" d="M255.711 23.052c-.05-.011-.1-.012-.145-.023a103.96 103.96 0 0 0-.221 6.388c3.441.623 6.325-.2 6.5-1.9.176-1.746-2.568-3.745-6.13-4.465" transform="translate(134.697 12.148)" style="fill:#dd8e7c"/>
        <path data-name="Path 16437" d="M273.945 15.445s-8.045 9.984-17.375 11.074c0 0-1.111-6.223 4.709-16.881s23.5-11.9 33.133-6.542l1.427 28.7s-17.378 1.61-21.894-16.357" transform="translate(135.298)" style="fill:#333"/>
        <path data-name="Path 16438" d="M246.419 164.859a.624.624 0 0 1-.243-.05.613.613 0 0 1-.318-.8c7.653-17.7 10.83-36.831 10.861-37.022a.6.6 0 0 1 .7-.5.609.609 0 0 1 .5.7c-.031.192-3.234 19.471-10.945 37.312a.613.613 0 0 1-.561.368" transform="translate(129.666 66.713)" style="fill:#333"/>
        <path data-name="Path 16439" d="M253.049 133.174a.611.611 0 0 1-.165-1.2c3.011-.852 27.74-8.042 27.99-8.114a.611.611 0 0 1 .339 1.173c-.249.073-24.981 7.263-28 8.116a.561.561 0 0 1-.165.024" transform="translate(133.164 65.325)" style="fill:#333"/>
        <path data-name="Path 16440" d="M236.877 202.685a24.128 24.128 0 0 1-9.539-1.549 29.744 29.744 0 0 1-4.337-1.92s-19.823 33.7-21.805 35.185 8.921 6.443 8.921 6.443 14.867-8.921 18.831-16.354 7.929-21.805 7.929-21.805" transform="translate(106.006 105.088)" style="fill:#edaf8c"/>
        <path data-name="Path 16441" d="M202.695 227.345s-5.452 6.443-4.46 8.921 5.452 6.442 12.885 2.973 15.859-12.64 21.558-26.643c0 0-15.252 20.215-19.822 18.715a100.257 100.257 0 0 1-10.159-3.965" transform="translate(104.507 112.146)" style="fill:#333"/>
        <path data-name="Path 16442" d="M214.915 113.629 271.51 137l46.71-23.374-46.71-13.849z" transform="translate(113.37 52.634)" style="fill:#eecdb8"/>
        <path data-name="Path 16443" d="m278.9 99.778-2.6 1.3s-8.658 2.323-16.24 4.9c-4.937.5-11.977 1.224-13.668 1.5-2.2.368-1.966 2.852 3.191 2.956-5.783 3.516-9.509 8.514-8.343 9.68 1.3 1.3 2.6 3.031 7.36 3.463s16.447-3.031 25.1-5.194 11.687-5.2 11.687-5.2z" transform="translate(127.147 52.634)" style="fill:#edaf8c"/>
        <path data-name="Path 16444" d="M241.991 116.735a.611.611 0 0 1-.42-1.054c.237-.226 5.86-5.523 10.314-6.956a.612.612 0 0 1 .376 1.164c-4.191 1.346-9.794 6.625-9.849 6.68a.608.608 0 0 1-.42.167" transform="translate(127.33 57.337)" style="fill:#333"/>
        <path data-name="Path 16445" d="M243.447 116.888a.611.611 0 0 1-.324-1.129c.244-.154 6.024-3.756 8.444-4.512a.61.61 0 0 1 .364 1.165c-2.271.71-8.1 4.346-8.16 4.381a.6.6 0 0 1-.324.095" transform="translate(128.099 58.667)" style="fill:#333"/>
        <path data-name="Path 16446" d="M246.846 108.4a.612.612 0 0 1-.235-1.176 49.931 49.931 0 0 1 7.23-2.4.611.611 0 1 1 .234 1.2 49.414 49.414 0 0 0-6.995 2.328.6.6 0 0 1-.234.047" transform="translate(129.891 55.29)" style="fill:#333"/>
        <path data-name="Path 16447" d="M296.586 44.543a91.554 91.554 0 0 0 4.089 34.612c1.262 4.023 2.91 8.517 4.722 13.1 6.726 17 15.72 35.22 15.72 35.22S284 123.14 265.79 129.088c0 0 2.769 9.785 6.159 13.508 0 0 5.265.927 11.837 2.548 13.605 3.356 36.451 8.589 48.482 9.09a18.935 18.935 0 0 0 5.687-.558c12.142-3.232 12.064-19.112 11.41-24.344-.744-5.947-11.893-57.983-19.7-69.5s-23.788-16.074-33.08-15.284" transform="translate(140.207 23.451)" style="fill:#557571"/>
        <path data-name="Path 16448" d="m231.837 111.537-8.656 2.6 22.94 9.955 6.277-3.246z" transform="translate(117.73 58.837)" style="fill:#333"/>
        <path data-name="Path 16449" d="M198.616 95.7a24.325 24.325 0 0 1-13.227-2.29c-6.613-3.306-15.515-5.85-19.586-7.121s-4.96-1.144-5.213-.127 2.925 3.052 4.2 3.814a38.747 38.747 0 0 1 3.943 3.307s-8.9.382-15.642 1.4-14.5 2.161-14.626 3.179 2.417 1.272 6.359 1.4 9.538.509 9.538.509 1.017 1.017-.509 1.146-8.267 1.017-11.319 1.4-4.7 1.272-4.578 2.035 2.417 1.146 7.63.764 9.793-.891 9.666-.382-.764 1.017-4.451 1.526-10.564 2.009-11.446 2.29c-2.193.7-2.035 2.035.635 2.417s12.081-.764 14.117-1.017 2.543.891 1.4 1.144-8.774 2.672-9.791 3.052-3.148 2.258.635 2.163c2.164-.055 11.319-2.29 13.353-2.417s13.227-.635 19.2-2.29 7.121-3.307 8.9-3.179 10.046-.509 12.591-.255-1.779-12.468-1.779-12.468" transform="translate(72.708 45.03)" style="fill:#edaf8c"/>
        <path data-name="Path 16450" d="M157.513 105.088a.632.632 0 0 1-.339-.1c-4.332-2.889-6.637-10.566-6.733-10.891a.612.612 0 0 1 1.173-.347c.021.076 2.276 7.578 6.238 10.221a.611.611 0 0 1-.339 1.12" transform="translate(79.346 49.222)" style="fill:#333"/>
        <path data-name="Path 16451" d="M165.266 95.819a.463.463 0 0 1-.079-.006 10.057 10.057 0 0 1-7.456-4.769.611.611 0 0 1 1.077-.577 8.84 8.84 0 0 0 6.535 4.135.611.611 0 0 1-.076 1.217" transform="translate(83.167 47.554)" style="fill:#333"/>
        <path data-name="Path 16452" d="M327.225 120.305c-.325 0-.654-.006-.987-.021-12.232-.509-35.7-5.925-48.6-9.107a.611.611 0 1 1 .293-1.187c12.856 3.173 36.233 8.568 48.361 9.075a18.455 18.455 0 0 0 5.5-.539.611.611 0 1 1 .313 1.181 18.957 18.957 0 0 1-4.882.6" transform="translate(146.21 58.012)" style="fill:#333"/>
        <path data-name="Path 16453" d="M266.064 113.4a.611.611 0 0 1-.189-1.191c16.357-5.34 48.072-2.415 54.385-1.761-1.969-4.043-9.486-19.691-15.254-34.267a.611.611 0 1 1 1.136-.451c6.639 16.783 15.61 34.992 15.7 35.174a.611.611 0 0 1-.62.877c-.368-.043-37.094-4.248-54.969 1.587a.587.587 0 0 1-.189.032" transform="translate(140.029 39.747)" style="fill:#333"/>
        <path data-name="Path 16454" d="M259.682 84.467a.61.61 0 0 1-.608-.564 17.631 17.631 0 0 0-1.02-5.391c-1.288-.037-1.466-.628-1.6-1.579-.05-.35-.1-.709-1.827-.709a.611.611 0 0 1 0-1.222c.9 0 2.786 0 3.024 1.67a3.807 3.807 0 0 0 .108.609 3.96 3.96 0 0 1 .431.012c.434 0 1.584 0 2.1 6.513a.61.61 0 0 1-.561.657h-.047" transform="translate(133.995 39.565)" style="fill:#333"/>
        <path data-name="Path 16455" d="M235.647 81.259a.608.608 0 0 1-.432-.179c-2.528-2.53-7.7-4.031-7.755-4.046a.611.611 0 1 1 .336-1.175c.225.064 5.53 1.6 8.284 4.355a.612.612 0 0 1-.432 1.045" transform="translate(119.753 40.004)" style="fill:#333"/>
        <path data-name="Path 16456" d="M232.947 85.1a.612.612 0 0 1-.573-.4c-.686-1.862-4.613-5.6-6.069-6.881a.611.611 0 1 1 .81-.915c.221.2 5.473 4.841 6.4 7.376a.609.609 0 0 1-.362.784.6.6 0 0 1-.211.038" transform="translate(119.27 40.488)" style="fill:#333"/>
        <path data-name="Path 16457" d="M309.906 105.25a.61.61 0 0 1-.483-.238 17.139 17.139 0 0 0-7.389-5.415.611.611 0 0 1 .374-1.164 18.051 18.051 0 0 1 7.98 5.832.611.611 0 0 1-.11.857.6.6 0 0 1-.373.128" transform="translate(159.103 51.909)" style="fill:#333"/>
        <path data-name="Path 16458" d="M201.252 230.982a.619.619 0 0 1-.3-.081.611.611 0 0 1-.229-.834l11.456-20.049a.612.612 0 0 1 1.063.606l-11.456 20.049a.612.612 0 0 1-.532.309" transform="translate(105.84 110.625)" style="fill:#333"/>
        <path data-name="Path 16459" d="M215.6 234.1a.556.556 0 0 1-.1-.009.612.612 0 0 1-.5-.7l16.355-98.618a.6.6 0 0 1 .7-.5.614.614 0 0 1 .5.7L216.2 233.585a.615.615 0 0 1-.6.512" transform="translate(113.408 70.82)" style="fill:#333"/>
    </g>
</svg>
