<?xml version="1.0" encoding="UTF-8"?>
<svg id="Layer_2" data-name="Layer 2" xmlns="http://www.w3.org/2000/svg" viewBox="0 0 105.12 123.9">
  <defs>
    <style>
      .cls-1 {
        fill: #6c9553;
      }

      .cls-1, .cls-2 {
        stroke: #000;
        stroke-miterlimit: 10;
      }

      .cls-2 {
        fill: #adc0c9;
      }
    </style>
  </defs>
  <g id="Layer_1-2" data-name="Layer 1">
    <path class="cls-2" d="M44.34,123.39c5.73-.07,12.97-.65,21.11-2.55,8.74-2.04,15.9-4.99,21.28-7.66,.44-4.05,1.36-10.12,3.57-17.19,3.44-10.98,7.96-17.89,9.53-20.77,8.69-15.86,7.23-53.88-18.3-68.8C58.45-7.08,26.31,4.51,16.42,21.09c-3.61,6.06-1.21,7.67-8.17,25.53C2.91,60.33-1.58,67.27,1.51,71.79c2.2,3.21,7.23,3.75,11.84,3.52-4.74,12.06,.74,24.18,9.36,27.32,5.8,2.11,12.84,.1,18.21-4.6h0c1.13,8.45,2.27,16.91,3.4,25.36Z"/>
    <path class="cls-1" d="M73.36,31.73c-5.04,1.18-19.32,5.25-27.71,18.26-8.69,13.48-6.88,30.07-6.41,34.33,.27,2.49,1.7,13.7,1.7,13.7,4.54-2.2,18.77-9.79,27.4-26.98,8.98-17.88,6.05-34.5,5.02-39.32Z"/>
    <path class="cls-2" d="M58.82,54.93c-3.41,4.58-7.12,10.26-10.57,17.06-3.79,7.45-6.32,14.39-8.05,20.25,0,.02,.36,2.88,.37,2.9l.37,2.9s1.05-.56,1.06-.57c.04-.02,1.93-1.03,1.96-1.05,1.63-5.86,3.52-12.01,5.74-18.39,2.9-8.34,5.99-16.04,9.13-23.1Z"/>
  </g>
</svg>